PathFileType	4	(X/Y/Z)	s08c0301.trc
DataRate	CameraRate	NumFrames	NumMarkers	Units	OrigDataRate	OrigDataStartFrame	OrigNumFrames
200	200	5	50	mm	200	1250	2000
Frame#	Time	racr			lacr			c7			jug			rlel			rdr			llel			ldr			s2			lic			ric			lasi			rasi			rpsi			lpsi			rgt			lgt			rth1			rth2			rth3			rth4			rlfc			rmfc			rsh1			rsh2			rsh3			rsh4			rlmal			rmmal			rcal			rtoe			rmt5			lth1			lth2			lth4			lth3			llfc			lmfc			llmal			lmmal			lcal			lmt5			lsh1			lsh2			lsh3			lsh4			ltoe			SBIKE			LBIKE			RBIKE			
		X1	Y1	Z1	X2	Y2	Z2	X3	Y3	Z3	X4	Y4	Z4	X5	Y5	Z5	X6	Y6	Z6	X7	Y7	Z7	X8	Y8	Z8	X9	Y9	Z9	X10	Y10	Z10	X11	Y11	Z11	X12	Y12	Z12	X13	Y13	Z13	X14	Y14	Z14	X15	Y15	Z15	X16	Y16	Z16	X17	Y17	Z17	X18	Y18	Z18	X19	Y19	Z19	X20	Y20	Z20	X21	Y21	Z21	X22	Y22	Z22	X23	Y23	Z23	X24	Y24	Z24	X25	Y25	Z25	X26	Y26	Z26	X27	Y27	Z27	X28	Y28	Z28	X29	Y29	Z29	X30	Y30	Z30	X31	Y31	Z31	X32	Y32	Z32	X33	Y33	Z33	X34	Y34	Z34	X35	Y35	Z35	X36	Y36	Z36	X37	Y37	Z37	X38	Y38	Z38	X39	Y39	Z39	X40	Y40	Z40	X41	Y41	Z41	X42	Y42	Z42	X43	Y43	Z43	X44	Y44	Z44	X45	Y45	Z45	X46	Y46	Z46	X47	Y47	Z47	X48	Y48	Z48	X49	Y49	Z49	X50	Y50	Z50	
1250	6.2500	761.537307	1388.069325	-99.006698	748.856926	1381.925810	-420.248410	755.091345	1426.515107	-263.047611	689.462257	1280.943446	-250.512023	692.345363	1146.840670	46.814603	801.181799	893.874770	-53.892039	679.504514	1123.014428	-529.818177	804.683815	889.120957	-438.640956	167.577732	1246.861981	-235.746281	329.490133	1212.927440	-386.485770	336.516043	1249.264398	-80.231791	341.004928	1159.084459	-349.420500	352.735722	1190.364993	-112.349497	205.806032	1286.415668	-189.002514	206.924242	1281.944321	-284.220902	252.777387	1147.217126	-37.433692	243.618799	1101.142349	-413.821249	375.588029	1025.345191	-38.014738	452.963321	983.220223	-44.244027	497.550688	908.093473	-53.593648	476.970745	1008.913407	-55.894135	572.147021	815.391501	-77.484232	548.085154	808.911604	-189.047591	494.959019	711.782410	-43.858587	473.327035	625.498728	-62.768781	414.872107	562.825778	-62.760559	497.957106	616.769315	-93.786494	349.305837	460.477771	-66.986234	366.408451	477.758535	-155.689498	262.645201	441.330759	-110.432760	555.971320	393.760810	-111.279720	465.750209	374.407091	-43.747011	295.440848	978.728664	-427.645561	352.534740	910.141567	-434.264168	385.356435	923.940446	-424.681797	366.308939	822.454123	-440.817887	390.466862	691.888143	-425.037888	390.153877	668.723566	-319.837993	103.923130	395.494791	-402.586823	135.607295	395.905267	-319.419244	46.395253	424.726549	-360.622809	150.388946	237.280801	-420.646931	305.881813	594.358485	-443.960413	263.610574	523.463525	-420.848965	189.216424	475.922735	-418.099919	282.409209	513.056965	-387.744550	230.427497	201.329403	-353.412084	-139.069952	941.429953	-228.238493	16.890117	80.130655	-427.627167	16.849262	80.056379	-29.096152	
1251	6.2550	760.923325	1387.788612	-100.059568	746.280448	1381.812913	-420.805191	753.351080	1426.155032	-263.876206	687.636248	1280.767046	-250.881180	691.381756	1146.448706	46.173327	801.032254	893.731311	-53.900605	678.241889	1122.517072	-529.418196	804.321357	888.010384	-435.834492	165.246867	1247.110390	-235.009933	327.228764	1213.755100	-385.711148	334.817529	1247.889815	-79.549518	339.049276	1160.177806	-348.616015	350.592683	1188.942513	-111.053771	203.630493	1285.965833	-187.791031	204.828852	1282.033513	-283.191189	249.529308	1145.532213	-37.348236	243.097444	1102.090524	-414.041723	371.231501	1022.147475	-37.511923	448.164318	978.576356	-43.870404	491.714609	903.470602	-52.982353	471.888326	1004.366378	-53.948470	565.543495	809.891517	-76.674635	541.908493	802.565549	-188.285724	490.021826	704.617337	-43.339018	470.786835	617.627370	-61.921130	413.944387	553.453550	-62.146114	495.898908	609.434988	-92.601841	351.063371	449.334608	-66.556035	367.926353	467.068391	-155.367587	264.678917	429.271746	-110.069563	558.457440	384.684396	-111.294315	468.498511	364.299478	-43.605187	296.406145	981.727344	-427.370097	355.182421	913.552691	-434.978004	387.712685	927.904228	-425.201091	370.627818	826.187431	-441.795081	396.125857	695.881789	-426.209002	396.310504	673.108068	-320.796519	104.474782	405.450857	-403.037239	135.960922	405.352301	-319.827961	47.476535	436.127412	-361.004543	147.668212	246.479152	-420.624481	310.406006	599.684763	-444.698737	266.770859	529.725960	-421.391212	191.402141	483.841840	-418.630985	285.359898	519.266348	-388.400908	226.870936	208.940445	-353.454817	-139.067132	941.411618	-228.122061	16.906319	80.205752	-427.559523	16.818373	80.099212	-29.094572	
1252	6.2600	760.269960	1387.555264	-101.230971	743.638435	1381.660268	-421.535540	751.593283	1425.862199	-264.837403	685.674648	1280.709764	-251.383283	690.622293	1146.077344	45.457985	800.892657	893.676443	-54.132010	676.965799	1122.001581	-529.131838	803.848940	887.660451	-435.753052	162.997305	1247.130744	-234.585283	325.013369	1214.432269	-385.077069	333.182980	1246.506647	-78.930644	337.087107	1161.172114	-347.708529	348.279843	1187.309017	-109.848915	201.420003	1285.409147	-186.714140	202.720202	1281.973302	-282.100942	246.230136	1143.688451	-37.408871	242.668809	1103.182466	-414.348378	366.675756	1018.500446	-37.220367	442.926600	973.514086	-43.485589	485.418865	898.148919	-52.593002	467.466241	999.342020	-53.396437	558.541741	803.844771	-76.002642	535.435861	795.888119	-187.471849	484.772386	697.174510	-42.901029	467.790370	609.762133	-60.917359	412.586611	544.039205	-61.371505	493.355785	601.892193	-91.366991	352.389211	438.158635	-65.924128	369.014071	456.198592	-154.822733	266.298861	417.412459	-109.663003	560.454158	375.316931	-111.431318	470.649617	354.021713	-43.545247	297.311859	984.780511	-427.102136	357.821648	916.899464	-435.800704	390.046709	931.793755	-425.741716	374.817654	829.874424	-443.068420	401.802131	700.127722	-427.270327	402.557571	677.724261	-321.683491	105.474805	415.559188	-403.480533	139.515082	414.089324	-320.618895	49.076449	447.441106	-361.414162	145.501536	255.707370	-420.589537	315.178672	605.492159	-445.504478	270.163373	536.458211	-422.007875	193.902974	491.948059	-419.098651	288.596142	525.516777	-388.988867	223.889075	217.265412	-353.840885	-139.063016	941.371530	-228.002030	16.898877	80.141562	-427.622254	16.830539	80.092285	-29.079618	
1253	6.2650	759.440444	1387.330090	-102.414779	741.099177	1381.592598	-422.145725	749.763543	1425.653457	-265.776217	683.754759	1280.671043	-251.991702	689.981098	1145.670136	44.568660	800.799135	893.450589	-54.003643	675.693001	1121.619679	-529.055179	803.708453	887.621210	-435.693164	160.872471	1247.206459	-233.999932	322.783280	1215.242771	-384.261483	331.292315	1245.089223	-78.200268	334.977592	1162.174197	-346.816581	346.020913	1185.677311	-108.612341	199.743963	1284.705980	-186.278650	200.566867	1281.937888	-281.068412	242.884974	1141.600879	-37.365945	242.225688	1104.115086	-414.680882	361.886662	1014.435899	-37.075019	437.387108	968.618265	-43.034862	478.748714	892.465567	-52.153569	462.743576	994.098821	-52.562106	551.229068	797.556262	-75.229827	528.659313	788.901046	-186.653129	478.934191	689.670807	-42.209919	464.360720	601.677269	-59.909766	410.716890	534.606443	-60.595469	490.491377	594.166334	-90.502429	353.172636	427.056473	-65.331871	369.632670	445.279619	-154.278820	267.373680	405.802941	-109.079834	561.813021	365.678498	-111.375388	472.277119	343.563575	-43.483613	298.156673	987.881209	-426.841732	360.424000	920.211529	-436.680684	392.269965	935.616145	-426.258300	379.058788	833.556075	-444.225899	407.583728	704.609593	-428.221033	408.877518	682.566738	-322.496600	106.933407	425.669590	-403.962830	141.842600	422.246823	-320.844871	50.999059	458.828619	-361.731942	144.026525	265.395305	-420.823531	320.026269	611.386833	-446.251030	273.837077	543.262743	-422.646875	196.744324	500.194714	-419.519336	292.014380	532.105509	-389.560549	220.965478	223.942338	-351.480731	-139.037067	941.432685	-227.978526	16.922264	80.252843	-427.552548	16.847976	80.091609	-29.087534	
1254	6.2700	758.620288	1386.973758	-103.401909	738.477447	1381.385316	-422.847423	747.994146	1425.442982	-266.634287	681.552319	1280.780610	-252.567092	689.514129	1145.234227	43.594628	800.734924	893.134272	-53.917762	674.432231	1121.182082	-529.076451	803.638448	887.697142	-435.698702	158.184061	1246.540624	-233.542756	320.570821	1215.858160	-383.497859	329.349895	1243.567540	-77.399733	332.902410	1163.018207	-345.864430	343.842017	1183.753115	-107.447993	198.108963	1283.891950	-184.752061	198.418682	1281.839502	-280.093809	239.677914	1139.400939	-37.341120	241.734281	1105.172043	-415.065941	357.147973	1010.512685	-36.492449	431.799491	963.266914	-42.455752	471.686823	886.258737	-52.003227	457.989588	988.209130	-51.847357	543.589216	790.971098	-74.405920	521.691130	781.989565	-186.443463	472.874664	681.763747	-41.813385	460.750639	593.455078	-58.206842	408.464967	525.154099	-59.699519	487.005751	586.348609	-89.181099	353.433879	415.895861	-64.799926	369.704416	434.590444	-153.657581	268.190515	393.430470	-109.187129	562.674799	355.782145	-111.255631	473.255395	333.015847	-43.379485	298.939241	991.022722	-426.588967	362.932387	923.511423	-437.711749	394.410098	939.450367	-426.769887	383.293467	837.317810	-445.477958	413.442634	709.347427	-428.924094	415.252755	687.630274	-323.233417	108.809732	435.827676	-404.295001	143.530326	432.044904	-321.238404	53.537654	470.243728	-362.247939	142.954083	275.051549	-420.752819	325.128200	617.616925	-446.875922	277.767143	550.436945	-423.228322	199.902010	508.548619	-419.903241	295.730778	538.991682	-390.047393	219.232490	232.421370	-351.497244	-139.018892	941.440328	-227.917757	16.909082	80.162511	-427.610487	16.834504	80.051966	-29.066842	
